<svg xmlns="http://www.w3.org/2000/svg" viewBox="0 0 54.4 54.38"><title>Saga-logo-invert</title><g id="Layer_2" data-name="Layer 2"><g id="Layer_5" data-name="Layer 5"><path d="M50.4,29.19a25.24,25.24,0,0,1-.8,6.3,23.87,23.87,0,0,1-.73,2.36A25.13,25.13,0,0,1,43,47a26.92,26.92,0,0,1-2.74,2.37c-.65.48-1.32.94-2,1.36A25.24,25.24,0,0,1,7.39,47l6.73-6.74A15.66,15.66,0,0,0,40.88,29.19Z"/><path d="M9.5,29.19a15.57,15.57,0,0,0,4.62,11.08L7.39,47A27.11,27.11,0,0,1,5,44.27a25.68,25.68,0,0,1-3.48-6.42c-.27-.77-.52-1.56-.73-2.36a25.52,25.52,0,0,1,0-12.6c.21-.81.46-1.59.73-2.37a25.38,25.38,0,0,1,5.86-9.14h0a25.38,25.38,0,0,1,9.14-5.86l1-.34A25.14,25.14,0,0,1,25.2,4v9.5A15.72,15.72,0,0,0,9.5,29.19Z"/><path d="M54.4,25.19H44.88A15.71,15.71,0,0,0,29.2,9.5V0a25.07,25.07,0,0,1,7.64,1.18c.34.1.69.22,1,.34a25.32,25.32,0,0,1,15,15,24.05,24.05,0,0,1,.73,2.37A25.12,25.12,0,0,1,54.4,25.19Z"/><path d="M25.8,18.63a5.93,5.93,0,0,1,1.72,4.2,6,6,0,0,1-11.77,1.63,10.59,10.59,0,0,0,9.45,15.3,10.57,10.57,0,0,0,.6-21.13Z"/></g></g></svg>